<?xml version="1.0" encoding="utf-8"?>
<!-- Generator: Adobe Illustrator 27.5.0, SVG Export Plug-In . SVG Version: 6.00 Build 0)  -->
<svg version="1.1" id="Слой_1" xmlns="http://www.w3.org/2000/svg" xmlns:xlink="http://www.w3.org/1999/xlink" x="0px" y="0px"
	 viewBox="0 0 450 72" style="enable-background:new 0 0 450 72;" xml:space="preserve">
<style type="text/css">
	.st0{fill:#003A40;}
	.st1{fill:#4EB15E;}
	.st2{fill:#6A6A6A;}
</style>
<g>
	<g>
		<g>
			<path class="st0" d="M49.95,47.49c0,0.01-0.01,0.01-0.02,0.02l-0.75-0.75L37.24,34.8h2.74l9.33,11.87L49.95,47.49z"/>
			<path class="st1" d="M49.94,47.51c-0.01,0.01-0.01,0.01-0.02,0.02l-0.82-0.64l-11.86-9.33V34.8l11.96,11.96L49.94,47.51z"/>
		</g>
		<g>
			<path class="st0" d="M37.24,37.55l-11.87,9.33l-0.82,0.64c-0.01,0-0.01-0.01-0.02-0.02l0.75-0.75L37.24,34.8L37.24,37.55
				L37.24,37.55z"/>
			<path class="st1" d="M37.24,34.8L25.28,46.76l-0.75,0.75c-0.01-0.01-0.01-0.01-0.02-0.02l0.64-0.82l9.33-11.87H37.24z"/>
		</g>
		<g>
			<path class="st0" d="M37.24,34.8h-2.74l-9.33-11.87l-0.64-0.82c0-0.01,0.01-0.01,0.02-0.02l0.75,0.75L37.24,34.8z"/>
			<path class="st1" d="M37.24,32.06v2.74L25.28,22.85l-0.75-0.75c0.01-0.01,0.01-0.01,0.02-0.02l0.82,0.64L37.24,32.06z"/>
		</g>
		<g>
			<path class="st0" d="M49.94,22.1l-0.75,0.75v0L37.24,34.8v-2.74l0,0l11.87-9.33c0,0,0,0,0,0l0.82-0.64
				C49.92,22.09,49.93,22.1,49.94,22.1z"/>
			<path class="st1" d="M49.96,22.12l-0.64,0.82L39.98,34.8h-2.74l11.96-11.95v0l0.75-0.75h0C49.94,22.11,49.95,22.12,49.96,22.12z"
				/>
		</g>
	</g>
	<g>
		<g>
			<path class="st0" d="M66.47,34.8H37.24l3.14-3.14v0h0l25.83,3.09l0.26,0.03C66.47,34.79,66.47,34.8,66.47,34.8z"/>
			<path class="st1" d="M66.47,34.8L66.47,34.8c0,0.01,0,0.02,0,0.02l-0.26,0.03l-25.83,3.09h0l-3.14-3.14H66.47z"/>
		</g>
		<g>
			<path class="st0" d="M40.37,37.94l-3.09,25.83l-0.03,0.26c-0.01,0-0.01,0-0.02,0V34.8L40.37,37.94L40.37,37.94z"/>
			<path class="st1" d="M37.24,34.8v29.23h0c-0.01,0-0.01,0-0.02,0l-0.03-0.26L34.1,37.94h0v0L37.24,34.8z"/>
		</g>
		<g>
			<path class="st0" d="M37.24,34.8L37.24,34.8l-3.14,3.14v0h0L8.26,34.86l-0.26-0.03c0-0.01,0-0.01,0-0.02L37.24,34.8L37.24,34.8z"
				/>
			<path class="st1" d="M37.24,34.8H8.01c0-0.01,0-0.02,0-0.02l0.26-0.03l25.83-3.09h0L37.24,34.8z"/>
		</g>
		<g>
			<path class="st0" d="M37.24,5.57V34.8h0l-3.14-3.14h0l3.09-25.83l0.03-0.26C37.22,5.57,37.23,5.57,37.24,5.57z"/>
			<path class="st1" d="M40.37,31.66L40.37,31.66L40.37,31.66l-3.14,3.14V5.57c0.01,0,0.02,0,0.02,0l0.03,0.26L40.37,31.66z"/>
		</g>
	</g>
	<path class="st1" d="M35.32,1.11c0.07-0.13,0.27-0.07,0.25,0.08l-0.51,4.28l-1.36,11.41c-0.01,0.06-0.05,0.1-0.11,0.11
		c-7.11,1.45-12.72,7.05-14.17,14.17c-0.01,0.06-0.06,0.1-0.11,0.11L8.06,32.6c-0.08,0.01-0.16-0.06-0.15-0.14
		c0.95-12.1,9.23-22.14,20.39-25.69c0.11-0.03,0.22-0.06,0.33-0.1c0.11-0.03,0.22-0.07,0.33-0.11C31.81,5.6,34.02,3.6,35.32,1.11z"
		/>
	<path class="st0" d="M35.03,63.98c0.01,0.08-0.06,0.16-0.14,0.15C22.79,63.18,12.75,54.9,9.2,43.74c0,0,0,0,0,0
		c-0.03-0.11-0.06-0.22-0.1-0.33C9.07,43.3,9.04,43.19,9,43.09c0,0,0,0,0-0.01c-0.96-2.85-2.97-5.06-5.45-6.36
		c-0.13-0.07-0.07-0.27,0.08-0.25l4.28,0.51l11.41,1.36c0.06,0.01,0.1,0.05,0.11,0.11c1.45,7.11,7.05,12.72,14.17,14.17
		c0.06,0.01,0.1,0.06,0.11,0.11L35.03,63.98z"/>
	<path class="st1" d="M66.41,37c0.08-0.01,0.16,0.06,0.15,0.14c-0.95,12.1-9.23,22.14-20.39,25.69c0,0,0,0,0,0
		c-0.11,0.03-0.22,0.06-0.33,0.1c-0.11,0.03-0.21,0.07-0.32,0.1c0,0,0,0-0.01,0c-2.85,0.96-5.06,2.97-6.36,5.45
		c-0.07,0.13-0.27,0.07-0.25-0.08l0.51-4.28l1.36-11.41c0.01-0.06,0.05-0.1,0.11-0.11C48,51.17,53.6,45.57,55.05,38.45
		c0.01-0.06,0.06-0.1,0.11-0.11L66.41,37z"/>
	<path class="st0" d="M70.93,32.89c0.13,0.07,0.07,0.27-0.08,0.25l-4.28-0.51l-11.41-1.36c-0.06-0.01-0.1-0.05-0.11-0.11
		C53.6,24.04,48,18.44,40.89,16.99c-0.06-0.01-0.1-0.06-0.11-0.11L39.44,5.63c-0.01-0.08,0.06-0.16,0.14-0.15
		c12.1,0.95,22.14,9.23,25.69,20.39c0,0,0,0,0,0c0.03,0.11,0.06,0.22,0.1,0.33c0.03,0.11,0.07,0.21,0.1,0.32c0,0,0,0,0,0.01
		C66.44,29.37,68.44,31.59,70.93,32.89z"/>
</g>
<g>
	<path class="st2" d="M70.28,55.18l8-39.78h0.66l14.53,25.08l13.71-25.08h0.69l8.05,39.78h-8.74l-3.27-17.59l-10.34,19h-0.61
		L81.87,37.33l-3.37,17.86H70.28z"/>
	<path class="st2" d="M120.95,55.18l19.64-39.72h0.58l19.21,39.72h-9.62l-2.44-5.61H132.7l-2.5,5.61H120.95z M135.35,42.93h10.12
		l-5-12.06L135.35,42.93z"/>
	<path class="st2" d="M168.72,55.18V16.66h9.91c3.05,0,5.46,0.22,7.25,0.66c1.79,0.44,3.37,1.19,4.76,2.23
		c1.44,1.05,2.55,2.35,3.33,3.92c0.79,1.57,1.18,3.23,1.18,4.98c0,3.9-1.39,6.99-4.16,9.27c-2.77,2.29-6.53,3.43-11.28,3.43
		c-0.5,0-0.87,0-1.12-0.01s-0.48-0.02-0.69-0.04v14.08H168.72z M179.16,23.72h-1.25v10.28h1.67c2.32,0,4.09-0.45,5.31-1.34
		c1.22-0.89,1.83-2.18,1.83-3.87c0-1.75-0.6-3.04-1.81-3.85C183.72,24.13,181.8,23.72,179.16,23.72z"/>
	<path class="st2" d="M214.15,55.18V24.71H201.9v-8.05h33.64v8.05h-12.2v30.48H214.15z"/>
	<path class="st2" d="M243,35.92c0-2.85,0.49-5.52,1.47-8.01c0.98-2.49,2.43-4.72,4.34-6.68c1.81-1.88,3.91-3.32,6.3-4.32
		c2.39-1,4.9-1.5,7.52-1.5c2.62,0,5.13,0.5,7.53,1.51s4.53,2.46,6.39,4.36c1.88,1.9,3.3,4.09,4.26,6.58
		c0.97,2.49,1.45,5.18,1.45,8.06c0,2.41-0.34,4.68-1.01,6.8c-0.67,2.13-1.67,4.07-3,5.82c-1.88,2.5-4.19,4.44-6.92,5.82
		c-2.74,1.38-5.64,2.07-8.7,2.07c-2.6,0-5.1-0.5-7.48-1.51s-4.5-2.46-6.34-4.36c-1.91-1.97-3.36-4.19-4.34-6.66
		C243.5,41.43,243,38.77,243,35.92z M252.46,35.92c0,3.35,0.98,6.15,2.94,8.41s4.37,3.39,7.24,3.39c2.89,0,5.3-1.12,7.25-3.37
		c1.95-2.25,2.92-5.06,2.92-8.42c0-3.38-0.97-6.2-2.92-8.46c-1.95-2.26-4.37-3.39-7.25-3.39c-2.87,0-5.28,1.13-7.24,3.39
		S252.46,32.54,252.46,35.92z"/>
	<path class="st2" d="M294.15,55.18V16.66h9.91c3.17,0,5.63,0.21,7.37,0.62c1.75,0.42,3.29,1.11,4.64,2.09
		c1.44,1.03,2.55,2.3,3.33,3.81c0.79,1.51,1.18,3.11,1.18,4.8c0,2.43-0.62,4.55-1.85,6.38c-1.23,1.83-3.01,3.25-5.33,4.28
		l11.74,16.55h-10.5l-10.28-15.12h-1.3v15.12H294.15z M304.59,23.67h-1.51v10.68h1.94c2.32,0,4.09-0.47,5.31-1.41
		c1.22-0.94,1.83-2.29,1.83-4.04c0-1.84-0.59-3.18-1.78-4C309.2,24.08,307.27,23.67,304.59,23.67z"/>
	<path class="st2" d="M334.37,55.18V16.66h9.19v38.53H334.37z"/>
	<path class="st2" d="M366.71,16.66v21.18c0,3.4,0.62,5.95,1.87,7.64s3.14,2.54,5.67,2.54c2.44,0,4.31-0.79,5.59-2.36
		c1.28-1.58,1.93-3.87,1.93-6.88V16.66h8.21v22.11c0,5.56-1.43,9.9-4.28,13.01c-2.85,3.11-6.81,4.66-11.88,4.66
		c-5.12,0-9.1-1.54-11.94-4.62c-2.84-3.08-4.26-7.41-4.26-12.99V16.66H366.71z"/>
	<path class="st2" d="M400.71,55.18l8-39.78h0.66l14.54,25.08l13.71-25.08h0.69l8.05,39.78h-8.74l-3.27-17.59l-10.34,19h-0.61
		L412.3,37.33l-3.37,17.86H400.71z"/>
</g>
</svg>
