<?xml version="1.0" encoding="utf-8"?>
<!-- Generator: Adobe Illustrator 27.2.0, SVG Export Plug-In . SVG Version: 6.00 Build 0)  -->
<svg version="1.1" id="Слой_1" xmlns="http://www.w3.org/2000/svg" xmlns:xlink="http://www.w3.org/1999/xlink" x="0px" y="0px"
	 viewBox="0 0 500 500" style="enable-background:new 0 0 500 500;" xml:space="preserve">
<style type="text/css">
	.st0{fill:url(#SVGID_1_);}
	.st1{fill:url(#SVGID_00000155107693305025031280000005520137625349196431_);}
	.st2{fill:url(#SVGID_00000002345301858165213350000002855638016150443393_);}
	.st3{fill:url(#SVGID_00000062874155979315196530000010234519010421066679_);}
	.st4{fill:url(#SVGID_00000012465877024606855030000000809478590759790757_);}
	.st5{fill:url(#SVGID_00000112620735850575940760000013257133655532463780_);}
	.st6{fill:url(#SVGID_00000119815007350310802450000003420620678348046245_);}
	.st7{opacity:0.27;}
</style>
<linearGradient id="SVGID_1_" gradientUnits="userSpaceOnUse" x1="104.8006" y1="176.4445" x2="235.4055" y2="50.5385">
	<stop  offset="5.586592e-03" style="stop-color:#4CB05C"/>
	<stop  offset="0.8858" style="stop-color:#094843"/>
	<stop  offset="1" style="stop-color:#003A40"/>
</linearGradient>
<path class="st0" d="M234.33,1.8v106.21C167.69,115.06,114.76,168,107.7,234.63H52.92c5.48-71.89,49.5-133,111.46-162.71
	c0.05-0.02,0.1-0.04,0.15-0.07c1.02-0.46,2.09-0.95,3.22-1.5c0.07-0.02,0.14-0.05,0.21-0.1c11.39-5.47,27.76-15.22,42.91-32.09
	C222.82,24.86,230.02,11.58,234.33,1.8z"/>
<linearGradient id="SVGID_00000112622814975902396910000001256481673139592370_" gradientUnits="userSpaceOnUse" x1="320.6361" y1="103.0107" x2="490.025" y2="272.3996">
	<stop  offset="0" style="stop-color:#003A40"/>
	<stop  offset="0.1142" style="stop-color:#094843"/>
	<stop  offset="0.9944" style="stop-color:#4CB05C"/>
</linearGradient>
<path style="fill:url(#SVGID_00000112622814975902396910000001256481673139592370_);" d="M497.55,234.63H391.33
	c-7.04-66.64-59.98-119.56-126.62-126.63V53.22c71.89,5.48,133,49.5,162.71,111.46c0.54,1.19,1.12,2.46,1.77,3.81
	c5.48,11.37,15.22,27.64,31.98,42.68C474.49,223.12,487.77,230.33,497.55,234.63z"/>
<linearGradient id="SVGID_00000071528562977003325250000015764292321950931359_" gradientUnits="userSpaceOnUse" x1="301.2628" y1="422.832" x2="415.5258" y2="281.928">
	<stop  offset="0" style="stop-color:#003A40"/>
	<stop  offset="0.1142" style="stop-color:#094843"/>
	<stop  offset="0.9944" style="stop-color:#4CB05C"/>
</linearGradient>
<path style="fill:url(#SVGID_00000071528562977003325250000015764292321950931359_);" d="M446.13,265.02
	c-5.48,71.89-49.5,133-111.46,162.71c-0.1,0.04-0.21,0.1-0.32,0.14c-0.96,0.44-1.99,0.91-3.05,1.42c-0.07,0.02-0.14,0.05-0.21,0.1
	c-11.39,5.47-27.76,15.22-42.91,32.09c-11.95,13.31-19.16,26.6-23.47,36.38V391.64c66.64-7.05,119.57-59.99,126.63-126.63H446.13z"
	/>
<linearGradient id="SVGID_00000096763754393318633610000002894572753034116517_" gradientUnits="userSpaceOnUse" x1="189.909" y1="425.3978" x2="81.841" y2="279.6883">
	<stop  offset="0" style="stop-color:#003A40"/>
	<stop  offset="0.1142" style="stop-color:#094843"/>
	<stop  offset="0.9944" style="stop-color:#4CB05C"/>
</linearGradient>
<path style="fill:url(#SVGID_00000096763754393318633610000002894572753034116517_);" d="M234.33,391.63v54.79
	c-71.89-5.48-132.99-49.5-162.71-111.46c-0.08-0.17-0.16-0.36-0.25-0.55c-0.4-0.9-0.84-1.84-1.31-2.82
	c-0.02-0.07-0.05-0.14-0.1-0.21c-5.47-11.39-15.22-27.76-32.09-42.91c-13.31-11.95-26.6-19.16-36.38-23.47H107.7
	C114.77,331.66,167.69,384.59,234.33,391.63z"/>
<linearGradient id="SVGID_00000151516746716215197240000003733257625375725985_" gradientUnits="userSpaceOnUse" x1="176.4696" y1="249.4639" x2="323.3002" y2="249.4639">
	<stop  offset="0" style="stop-color:#003A40"/>
	<stop  offset="0.1142" style="stop-color:#094843"/>
	<stop  offset="0.9944" style="stop-color:#4CB05C"/>
</linearGradient>
<polygon style="fill:url(#SVGID_00000151516746716215197240000003733257625375725985_);" points="235.97,235.55 176.47,322.88 
	263.8,263.38 323.3,176.05 "/>
<linearGradient id="SVGID_00000047022366131408292810000003477607992038123953_" gradientUnits="userSpaceOnUse" x1="175.7463" y1="250.1873" x2="322.5769" y2="250.1873">
	<stop  offset="0" style="stop-color:#003A40"/>
	<stop  offset="0.1142" style="stop-color:#094843"/>
	<stop  offset="0.9944" style="stop-color:#4CB05C"/>
</linearGradient>
<polygon style="fill:url(#SVGID_00000047022366131408292810000003477607992038123953_);" points="263.08,236.27 175.75,176.77 
	235.25,264.1 322.58,323.6 "/>
<linearGradient id="SVGID_00000091719305914139416870000001419482209341532050_" gradientUnits="userSpaceOnUse" x1="126.3059" y1="248.6116" x2="372.7406" y2="248.6116">
	<stop  offset="0" style="stop-color:#003A40"/>
	<stop  offset="0.0988" style="stop-color:#0F5146"/>
	<stop  offset="0.2687" style="stop-color:#25734E"/>
	<stop  offset="0.4424" style="stop-color:#368E54"/>
	<stop  offset="0.6191" style="stop-color:#42A158"/>
	<stop  offset="0.8006" style="stop-color:#4AAC5B"/>
	<stop  offset="0.9944" style="stop-color:#4CB05C"/>
</linearGradient>
<polygon style="fill:url(#SVGID_00000091719305914139416870000001419482209341532050_);" points="268.92,269.5 372.74,249.83 
	269.4,230.24 249.52,125.39 229.65,230.24 126.31,249.83 230.13,269.5 249.52,371.83 "/>
<polygon class="st7" points="256.01,252.81 269.73,250.2 255.89,247.58 263.94,235.77 252.31,243.7 249.7,229.98 247.08,243.82 
	235.47,235.91 243.43,247.6 229.67,250.2 243.32,252.79 235.61,264.1 247.1,256.28 249.7,270.04 252.29,256.4 263.8,264.24 "/>
</svg>
