<?xml version="1.0" encoding="utf-8"?>
<!-- Generator: Adobe Illustrator 27.5.0, SVG Export Plug-In . SVG Version: 6.00 Build 0)  -->
<svg version="1.1" id="Слой_1" xmlns="http://www.w3.org/2000/svg" xmlns:xlink="http://www.w3.org/1999/xlink" x="0px" y="0px"
	 viewBox="0 0 500 460" style="enable-background:new 0 0 500 460;" xml:space="preserve">
<style type="text/css">
	.st0{fill:#003A40;}
	.st1{fill:#4EB15E;}
</style>
<g>
	<g>
		<g>
			<path class="st0" d="M335.51,315.27c-0.03,0.04-0.07,0.09-0.11,0.13l-5.01-5.01L250,230h18.45l62.75,79.78L335.51,315.27z"/>
			<path class="st1" d="M335.4,315.4c-0.04,0.04-0.09,0.09-0.13,0.11l-5.49-4.31L250,248.45V230l80.38,80.38L335.4,315.4z"/>
		</g>
		<g>
			<path class="st0" d="M250,248.45l-79.78,62.76l-5.48,4.31c-0.04-0.03-0.09-0.07-0.13-0.12l5.01-5.01L250,230L250,248.45
				L250,248.45z"/>
			<path class="st1" d="M250,230l-80.38,80.38l-5.01,5.01c-0.04-0.04-0.09-0.08-0.12-0.13l4.32-5.49L231.56,230H250z"/>
		</g>
		<g>
			<path class="st0" d="M250,230h-18.45l-62.75-79.78l-4.31-5.48c0.03-0.04,0.07-0.09,0.11-0.13l5.01,5.01L250,230z"/>
			<path class="st1" d="M250,211.55V230l-80.38-80.38l-5.01-5.01c0.04-0.04,0.09-0.08,0.13-0.11l5.49,4.31L250,211.55z"/>
		</g>
		<g>
			<path class="st0" d="M335.4,144.61l-5.01,5.01v0L250.01,230v-18.44l0,0l79.78-62.74c0,0,0,0,0,0l5.48-4.31
				C335.31,144.52,335.35,144.56,335.4,144.61z"/>
			<path class="st1" d="M335.52,144.75l-4.32,5.49L268.45,230H250l80.38-80.37v0l5.01-5.01h0
				C335.44,144.65,335.49,144.7,335.52,144.75z"/>
		</g>
	</g>
	<g>
		<g>
			<path class="st0" d="M446.52,230H250l21.1-21.1v-0.01h0l173.68,20.75l1.72,0.2C446.52,229.9,446.52,229.95,446.52,230z"/>
			<path class="st1" d="M446.52,230L446.52,230c0,0.05,0,0.1-0.01,0.15l-1.73,0.2L271.11,251.1h-0.01L250,230H446.52z"/>
		</g>
		<g>
			<path class="st0" d="M271.1,251.1L250.35,424.8l-0.2,1.72c-0.05,0.01-0.1,0.01-0.16,0.01V230l21.1,21.1H271.1z"/>
			<path class="st1" d="M250,230v196.52h0c-0.05,0-0.1,0-0.15-0.01l-0.2-1.73L228.9,251.11h0v0L250,230z"/>
		</g>
		<g>
			<path class="st0" d="M250,230L250,230l-21.1,21.1v0.01h0L55.21,230.35l-1.72-0.2c-0.01-0.05-0.01-0.1-0.01-0.16L250,230L250,230z
				"/>
			<path class="st1" d="M250,230H53.47c0-0.06,0-0.1,0.01-0.16l1.72-0.2l173.68-20.74h0L250,230z"/>
		</g>
		<g>
			<path class="st0" d="M250,33.48V230h0l-21.09-21.1h-0.01l20.75-173.68l0.2-1.72C249.9,33.48,249.95,33.48,250,33.48z"/>
			<path class="st1" d="M271.1,208.9L271.1,208.9L271.1,208.9L250,230V33.48c0.06,0,0.1,0,0.16,0.01l0.2,1.72L271.1,208.9z"/>
		</g>
	</g>
	<path class="st1" d="M237.11,3.47c0.46-0.88,1.79-0.46,1.67,0.52l-3.44,28.75l-9.17,76.7c-0.05,0.38-0.33,0.69-0.71,0.76
		c-47.83,9.74-85.5,47.42-95.25,95.25c-0.08,0.37-0.38,0.66-0.76,0.71l-75.62,9.03c-0.56,0.07-1.04-0.4-1-0.96
		c6.41-81.35,62.03-148.85,137.1-172.74c0.74-0.2,1.49-0.42,2.24-0.65c0.74-0.23,1.46-0.46,2.19-0.71
		C213.49,33.67,228.4,20.2,237.11,3.47z"/>
	<path class="st0" d="M235.2,426.17c0.07,0.56-0.4,1.04-0.96,1c-81.35-6.41-148.85-62.03-172.74-137.1c0,0,0-0.01,0-0.01
		c-0.2-0.74-0.41-1.48-0.64-2.23c-0.22-0.72-0.45-1.43-0.7-2.14c0-0.01,0-0.03-0.01-0.04c-6.48-19.13-19.95-34.05-36.67-42.75
		c-0.88-0.46-0.46-1.79,0.52-1.67l28.75,3.44l76.7,9.17c0.38,0.05,0.69,0.33,0.76,0.71c9.74,47.83,47.42,85.5,95.25,95.25
		c0.37,0.08,0.66,0.38,0.71,0.76L235.2,426.17z"/>
	<path class="st1" d="M446.17,244.8c0.56-0.07,1.04,0.4,1,0.96c-6.41,81.35-62.03,148.85-137.1,172.74c0,0-0.01,0-0.01,0
		c-0.74,0.2-1.48,0.41-2.23,0.64c-0.72,0.22-1.43,0.45-2.14,0.7c-0.01,0-0.03,0-0.04,0.01c-19.13,6.48-34.05,19.95-42.75,36.67
		c-0.46,0.88-1.79,0.46-1.67-0.52l3.44-28.75l9.17-76.7c0.05-0.38,0.33-0.69,0.71-0.76c47.83-9.74,85.5-47.42,95.25-95.25
		c0.08-0.37,0.38-0.66,0.76-0.71L446.17,244.8z"/>
	<path class="st0" d="M476.53,217.11c0.88,0.46,0.46,1.79-0.52,1.67l-28.75-3.44l-76.7-9.17c-0.38-0.05-0.69-0.33-0.76-0.71
		c-9.74-47.83-47.42-85.5-95.25-95.25c-0.37-0.08-0.66-0.38-0.71-0.76l-9.03-75.62c-0.07-0.56,0.4-1.04,0.96-1
		c81.35,6.41,148.85,62.03,172.74,137.1c0,0,0,0.01,0,0.01c0.2,0.74,0.41,1.48,0.64,2.23c0.22,0.72,0.45,1.43,0.7,2.14
		c0,0.01,0,0.03,0.01,0.04C446.33,193.49,459.8,208.4,476.53,217.11z"/>
</g>
</svg>
